<?xml version="1.0" encoding="utf-8"?>
<!-- Generator: Adobe Illustrator 27.9.0, SVG Export Plug-In . SVG Version: 6.00 Build 0)  -->
<svg version="1.1" id="레이어_1" xmlns="http://www.w3.org/2000/svg" xmlns:xlink="http://www.w3.org/1999/xlink" x="0px"
 y="0px" viewBox="0 0 1080 1080" style="enable-background:new 0 0 1080 1080;" xml:space="preserve">
<style type="text/css">
.st0{fill:none;stroke:#E6B31D;stroke-width:0.5669;stroke-miterlimit:10;}
.st1{fill:#FEDC63;}
.st2{fill:#FFFFFF;}
.st3{fill:#0E0000;}
.st4{fill:none;stroke:#FEDC63;stroke-width:0.5669;stroke-miterlimit:10;}
</style>
<g>
<line class="st0" x1="647.1" y1="440" x2="647.1" y2="440"/>
<path class="st1" d="M664,516.6l-1.4-12.2l-1.4,12.2c0,0.4-0.3,0.6-0.7,0.7l-12.2,1.4l12.2,1.4c0.4,0,0.6,0.3,0.7,0.7l1.4,12.2
l1.4-12.2c0-0.4,0.3-0.6,0.7-0.7l12.2-1.4l-12.2-1.4C664.3,517.2,664,516.9,664,516.6z"/>
<path class="st1" d="M696,567.2c-41.6,30.6-98.8-4.5-91.4-55.3c2.2-14.9,10.6-28.8,22.8-37.6c0,0,0.3,0.3,0.3,0.3
c-11.1,9.4-18.8,23-20.5,37.6c-3.8,29.7,17,58.1,46.7,63.2c14.3,2.6,29.6-0.4,42-8.5L696,567.2L696,567.2z"/>
<path class="st1" d="M640,466.7c24.1-12.4,55.4-4.3,71,17.7c16.3,21.5,14.8,53.7-4,73c0,0-0.6-0.5-0.6-0.5
c7.8-10.2,12.1-22.6,12.2-35.1c0.6-32.5-27.2-59.3-59.7-57.9c-6.3,0.1-12.6,1.3-18.6,3.5C640.3,467.4,640,466.7,640,466.7
L640,466.7z"/>
<path class="st1" d="M607.7,476.1c18.9-29.3,59.8-39.1,90.7-23.1c20.7,10.1,35.9,30.8,39.5,53.5c5.1,28.1-8.5,58.5-33.1,73.1
c-4.7,3-9.9,5.1-15.1,6.9c-0.2,0.1-0.3,0-0.4-0.2c-0.1-0.2,0-0.3,0.2-0.4c1.3-0.6,4.3-2.1,5.5-2.7c1.1-0.7,4.1-2.4,5.3-3.1
c36.6-23.5,44.1-75.4,13.8-107.1c-19.8-21.5-53.3-28-80-15.8c-9.8,4.3-18.6,11-25.9,19.2C607.9,476.8,607.5,476.4,607.7,476.1
L607.7,476.1z"/>
<path class="st2" d="M550.4,472.9c-0.7-1.5-5.5-6.1-10.4-7v14.9c0.9-1.2,1.8-2.2,2.6-3C545.2,475.2,547,473.4,550.4,472.9z"/>
<path class="st3" d="M540,466c-0.5-0.1-1.1-0.2-1.6-0.2c-3.7,0-7.1,2.9-13,9.1c-8.8,9.3-54.4,56.2-71.1,72.9h-0.2
c-21.6,0.8-80.7,5.5-80,18.8c0.3,7.1,9.1,12,9.3,8.9c-0.3-3.2,19.5-15.6,62.7-20.3c-23.5,20.9-72.7,72.6-107.5,72.6
c-7,0-12-2.8-12-9.9c0-2.1,1.5-4.9,2.8-6c-2.8,0-6.5,4.2-6.5,11c0,11.7,10.6,17,19.3,17c36,0,89.9-64.5,112.7-85.7
c7.6-0.8,14.9-1,22.4-1c2.1,0,4.1,0,6.2,0c-7.3,15.9-18.3,44.3-16.4,59.4c0.5,4.4,6.7,9.4,11.5,9.4c5,0,10.9-2.9,16.7-8.3
c-3.9,1.3-9.1,3.9-14,3.9c-1,0-2.1-0.2-2.3-1.9c-1.1-10.7,13-47.4,19.8-61.7h0.2c15.3,1.1,30,4.2,30,3.9
c-2.6-2.3-17.9-5.8-28.6-7.3c11.7-28.5,29.6-57.5,39.6-69.9V466z M485.3,548.6c-8-0.7-15.7-1-23.4-1c53.6-56.7,55.2-58.3,57-59.9
C509.5,500.5,492,534.1,485.3,548.6z"/>
<path class="st2" d="M558.8,579.6c0.5-0.5-0.2-1.8-1.1-1c-3.9,3.6-10.7,10.1-17.8,16.5v4.4C547.9,591.5,555.4,583.6,558.8,579.6z"
/>
<path class="st2" d="M577,501.7c-1.5,0-3.6,1.3-6,3.2c-4.1,3.2-8.6,8.4-13.5,14.8c-5.3,6.9-11.4,15.1-17.6,24.1v23.7
c1.5-2.3,3-4.6,4.5-6.9c8.1-11.9,14.8-21.4,21.8-30.4c7.1-8.8,17.7-24,23.4-21.4C592.6,510.6,586.1,501.2,577,501.7z"/>
<path class="st3" d="M528.6,560.6c-19.8,31-27.3,46.8-27.3,51.6c0,1.8,0.3,2.1,0.5,2.4c1,2.4,4.5,5.8,5.8,6.5
c1.5,0.8,3.1,1.5,5.2,0.7c5.5-2,16.8-12.2,27-22.3v-4.4c-10.4,9.3-21.6,18.5-25.7,18c3.5-9.3,13.6-26.7,25.7-45.6v-23.7
C536.2,549.1,532.4,554.7,528.6,560.6z"/>
<path class="st2" d="M615.3,578.8c-16.4,13.6-46.1,36.2-58,36.2c-3.6,0-5-1.1-4.9-3.1c0.5-4.2,3.6-9.4,6.5-12.8
c18.2-0.5,49.4-23.9,49.4-33.9c0-4.5-7.5-8.3-9.9-8.3c-7,0-21.4,5-34.9,16.2c-10.2,8.6-18.5,18.8-22.4,28.1
c-0.4,1.2-0.8,2.3-1.2,3.5v10.7c2.1,3.5,6.6,6.7,10.4,6.7c21.6,0,53.9-31,66.1-42.4C617,579.3,615.8,578.5,615.3,578.8z
 M603.2,561.8c-1,6.2-27.9,32.5-42.1,34.1C566.5,587.2,585.1,567.6,603.2,561.8z"/>
<path class="st3" d="M538.9,611.9c0,1.1,0.4,2.3,1.1,3.5v-10.7C539.3,607,538.9,609.3,538.9,611.9z"/>
<path class="st2" d="M616.1,588.8c2.8-2.1,5.8-4.2,8.8-6.2c-1-3.1-1.5-7.3-1.5-11.2c0-3.6,0.3-7,0.8-9.1c1.6-6.2,7.3-8.3,11.2-9.9
c1.5-0.5,4.2-1.3,4.9-0.5c-0.3,0.3-0.5,0.5-1.3,1.8c-1.9,3.9-3.2,10.7-3.2,16.1c0,1.9,0.3,3.9,0.6,5.2c15.6-10.6,39.6-24,51.6-28.9
c1.1-0.5,1.1,0.3,0.3,0.8c-19,11.2-37.3,25.8-50,35.9c4.1,19.3,22.7,48.7,44.2,48.7c2.4,0,4.7,0,6.7-0.3c0.5-0.2,1.1,0,0.2,0.3
c-2.9,1.1-6.3,1.6-9.6,1.6c-20.6,0-41.9-19.3-51.6-42.2c-8.9,6.8-14.9,12-18.8,17.2c-3.4,4.2-3.6,7.1-1.1,7.5
c-2.3,1.3-8.3,1.1-11.2-3.2c-0.5-0.7-0.8-1.5-0.8-2.3C596.2,605.2,603.6,597.9,616.1,588.8z"/>
<line class="st4" x1="605.3" y1="463.4" x2="605.3" y2="463.4"/>
<path class="st1" d="M724.1,478.6c-1.7-10.2-0.8-20.4,0-30.6c0-0.5,0.9-0.5,0.9,0c0.3,2.6,0.5,5.1,0.6,7.7
C725.8,457.1,726.7,481.9,724.1,478.6L724.1,478.6z"/>
<path class="st1" d="M724.4,478.2c3.3-3.1,8.3-4,12.6-5c0.5-0.1,0.8,0.6,0.3,0.9c-3.8,2.2-8.1,5-12.6,5
C724.4,479,724.2,478.5,724.4,478.2L724.4,478.2z"/>
<path class="st1" d="M724.6,478.2c10.7-0.6,21.4-0.5,32.2-0.6c0.6,0,0.6,0.9,0,0.9c-10.7,0.3-21.4,0.7-32.2,0.6
C724,479.1,724,478.2,724.6,478.2L724.6,478.2z"/>
<path class="st1" d="M724.3,478.3c3.6-5,8.3-8.9,12.8-13.2c1.5-1.4,3-2.7,4.6-4c0.2-0.2,0.5-0.1,0.7,0.1c0.1,0.2,0.1,0.4,0,0.6
c-2.7,3.1-5.4,6.1-8.3,9C733.2,471.4,723.8,481.6,724.3,478.3L724.3,478.3z"/>
<path class="st1" d="M724,477.5c5.8,4.3,11.1,9.2,16.4,14.1c0.2,0.2,0.2,0.5,0,0.7c-0.2,0.2-0.4,0.2-0.6,0
c-2.9-2.2-5.6-4.5-8.4-6.9c-2.8-2.3-5.5-4.7-8-7.3C723,477.8,723.6,477.2,724,477.5L724,477.5z"/>
<path class="st1" d="M724.7,478.2c4.9,0.9,9.6,2.6,14.3,4.2c4.7,1.7,9.3,3.4,13.9,5.4c0.2,0.1,0.3,0.4,0.2,0.6
c-0.1,0.2-0.3,0.3-0.5,0.3c-4.8-1.2-9.6-2.7-14.3-4.2C737.4,484.1,721.2,479,724.7,478.2L724.7,478.2z"/>
<path class="st1" d="M724.2,478.8c-2.4-2.9-3.6-6.3-4.9-9.6c-1.3-3.4-2.5-6.8-3.4-10.3c-0.1-0.2,0.1-0.5,0.3-0.6
c0.2-0.1,0.4,0,0.5,0.2c1.9,3.1,3.4,6.4,4.9,9.6C722.1,468.9,726.9,480.2,724.2,478.8L724.2,478.8z"/>
</g>
</svg>