<?xml version="1.0" encoding="utf-8"?>
<!-- Generator: Adobe Illustrator 27.9.0, SVG Export Plug-In . SVG Version: 6.00 Build 0)  -->
<svg version="1.1" id="레이어_1" xmlns="http://www.w3.org/2000/svg" xmlns:xlink="http://www.w3.org/1999/xlink" x="0px"
	 y="0px" viewBox="0 0 1080 1080" style="enable-background:new 0 0 1080 1080;" xml:space="preserve">
<style type="text/css">
	.st0{fill:none;stroke:#E6B31D;stroke-width:0.5669;stroke-miterlimit:10;}
	.st1{fill:#FEDC63;}
	.st2{fill:#0E0000;}
	.st3{fill:none;stroke:#FEDC63;stroke-width:0.5669;stroke-miterlimit:10;}
</style>
<g>
	<line class="st0" x1="647.1" y1="440" x2="647.1" y2="440"/>
	<path class="st1" d="M664,516.6l-1.4-12.2l-1.4,12.2c0,0.4-0.3,0.6-0.7,0.7l-12.2,1.4l12.2,1.4c0.4,0,0.6,0.3,0.7,0.7l1.4,12.2
		l1.4-12.2c0-0.4,0.3-0.6,0.7-0.7l12.2-1.4l-12.2-1.4C664.3,517.2,664,516.9,664,516.6z"/>
	<path class="st1" d="M696,567.2c-41.6,30.6-98.8-4.5-91.4-55.3c2.2-14.9,10.6-28.8,22.8-37.6c0,0,0.3,0.3,0.3,0.3
		c-11.1,9.4-18.8,23-20.5,37.6c-3.8,29.7,17,58.1,46.7,63.2c14.3,2.6,29.6-0.4,42-8.5L696,567.2L696,567.2z"/>
	<path class="st1" d="M640,466.7c24.1-12.4,55.4-4.3,71,17.7c16.3,21.5,14.8,53.7-4,73c0,0-0.6-0.5-0.6-0.5
		c7.8-10.2,12.1-22.6,12.2-35.1c0.6-32.5-27.2-59.3-59.7-57.9c-6.3,0.1-12.6,1.3-18.6,3.5C640.3,467.4,640,466.7,640,466.7
		L640,466.7z"/>
	<path class="st1" d="M607.7,476.1c18.9-29.3,59.8-39.1,90.7-23.1c20.7,10.1,35.9,30.8,39.5,53.5c5.1,28.1-8.5,58.5-33.1,73.1
		c-4.7,3-9.9,5.1-15.1,6.9c-0.2,0.1-0.3,0-0.4-0.2c-0.1-0.2,0-0.3,0.2-0.4c1.3-0.6,4.3-2.1,5.5-2.7c1.1-0.7,4.1-2.4,5.3-3.1
		c36.6-23.5,44.1-75.4,13.8-107.1c-19.8-21.5-53.3-28-80-15.8c-9.8,4.3-18.6,11-25.9,19.2C607.9,476.8,607.5,476.4,607.7,476.1
		L607.7,476.1z"/>
	<path class="st2" d="M500.4,550.7c10.7,1.5,26,5,28.6,7.3c0,0.3-14.8-2.8-30-3.9h-0.2c-6.8,14.3-20.9,51-19.8,61.7
		c0.2,1.8,1.3,1.9,2.3,1.9c4.9,0,10.1-2.6,14-3.9c-5.8,5.4-11.7,8.3-16.7,8.3c-4.9,0-11-5-11.5-9.4c-1.9-15.1,9.1-43.5,16.4-59.4
		c-2.1,0-4.1,0-6.2,0c-7.5,0-14.8,0.2-22.4,1c-22.7,21.3-76.6,85.7-112.7,85.7c-8.8,0-19.3-5.4-19.3-17c0-6.8,3.7-11,6.5-11
		c-1.3,1.1-2.8,3.9-2.8,6c0,7.1,5,9.9,12,9.9c34.7,0,83.9-51.6,107.5-72.6c-43.2,4.7-63,17-62.7,20.3c-0.2,3.1-8.9-1.8-9.3-8.9
		c-0.6-13.3,58.4-18,80-18.8h0.2c16.7-16.7,62.3-63.6,71.1-72.9c5.8-6.2,9.3-9.1,13-9.1c5.4,0,11.2,5.5,12,7.1
		c-3.4,0.5-5.2,2.3-7.8,4.9C533.4,487.7,513.2,519.5,500.4,550.7z M461.9,547.6c7.6,0,15.4,0.3,23.4,1c6.7-14.4,24.2-48.1,33.6-60.9
		C517.1,489.3,515.5,491,461.9,547.6z"/>
	<path class="st2" d="M557.5,519.7c4.9-6.3,9.4-11.5,13.5-14.8c2.4-1.9,4.5-3.2,6-3.2c9.1-0.5,15.6,8.9,12.5,7.1
		c-5.7-2.6-16.2,12.7-23.4,21.4c-7,8.9-13.6,18.5-21.8,30.4c-14.1,21.4-26.3,42.1-30.2,52.4c7,0.8,33.9-25.7,43.5-34.4
		c1-0.8,1.6,0.5,1.1,1c-8,9.1-36.2,38.6-45.9,42.2c-2.1,0.8-3.7,0.2-5.2-0.7c-1.3-0.6-4.9-4.1-5.8-6.5c-0.2-0.3-0.5-0.6-0.5-2.4
		c0-4.9,7.5-20.6,27.3-51.6C538.7,544.9,549.1,530.7,557.5,519.7z"/>
	<path class="st2" d="M552.5,611.9c-0.2,1.9,1.3,3.1,4.9,3.1c11.9,0,41.6-22.6,58-36.2c0.5-0.3,1.6,0.5,1.1,1
		c-12.2,11.4-44.5,42.4-66.1,42.4c-5,0-11.5-5.8-11.5-10.2c0-3.9,1-7.1,2.3-10.7c3.9-9.3,12.2-19.5,22.4-28.1
		c13.5-11.2,27.9-16.2,34.9-16.2c2.4,0,9.9,3.7,9.9,8.3c0,10.1-31.2,33.4-49.4,33.9C556.1,602.5,553,607.7,552.5,611.9z
		 M561.1,595.8c14.1-1.6,41.1-27.9,42.1-34.1C585.1,567.6,566.5,587.2,561.1,595.8z"/>
	<path class="st2" d="M616.1,588.8c2.8-2.1,5.8-4.2,8.8-6.2c-1-3.1-1.5-7.3-1.5-11.2c0-3.6,0.3-7,0.8-9.1c1.6-6.2,7.3-8.3,11.2-9.9
		c1.5-0.5,4.2-1.3,4.9-0.5c-0.3,0.3-0.5,0.5-1.3,1.8c-1.9,3.9-3.2,10.7-3.2,16.1c0,1.9,0.3,3.9,0.6,5.2c15.6-10.6,39.6-24,51.6-28.9
		c1.1-0.5,1.1,0.3,0.3,0.8c-19,11.2-37.3,25.8-50,35.9c4.1,19.3,22.7,48.7,44.2,48.7c2.4,0,4.7,0,6.7-0.3c0.5-0.2,1.1,0,0.2,0.3
		c-2.9,1.1-6.3,1.6-9.6,1.6c-20.6,0-41.9-19.3-51.6-42.2c-8.9,6.8-14.9,12-18.8,17.2c-3.4,4.2-3.6,7.1-1.1,7.5
		c-2.3,1.3-8.3,1.1-11.2-3.2c-0.5-0.7-0.8-1.5-0.8-2.3C596.2,605.2,603.6,597.9,616.1,588.8z"/>
	<line class="st3" x1="605.3" y1="463.4" x2="605.3" y2="463.4"/>
	<path class="st1" d="M724.1,478.6c-1.7-10.2-0.8-20.4,0-30.6c0-0.5,0.9-0.5,0.9,0c0.3,2.6,0.5,5.1,0.6,7.7
		C725.8,457.1,726.7,481.9,724.1,478.6L724.1,478.6z"/>
	<path class="st1" d="M724.4,478.2c3.3-3.1,8.3-4,12.6-5c0.5-0.1,0.8,0.6,0.3,0.9c-3.8,2.2-8.1,5-12.6,5
		C724.4,479,724.2,478.5,724.4,478.2L724.4,478.2z"/>
	<path class="st1" d="M724.6,478.2c10.7-0.6,21.4-0.5,32.2-0.6c0.6,0,0.6,0.9,0,0.9c-10.7,0.3-21.4,0.7-32.2,0.6
		C724,479.1,724,478.2,724.6,478.2L724.6,478.2z"/>
	<path class="st1" d="M724.3,478.3c3.6-5,8.3-8.9,12.8-13.2c1.5-1.4,3-2.7,4.6-4c0.2-0.2,0.5-0.1,0.7,0.1c0.1,0.2,0.1,0.4,0,0.6
		c-2.7,3.1-5.4,6.1-8.3,9C733.2,471.4,723.8,481.6,724.3,478.3L724.3,478.3z"/>
	<path class="st1" d="M724,477.5c5.8,4.3,11.1,9.2,16.4,14.1c0.2,0.2,0.2,0.5,0,0.7c-0.2,0.2-0.4,0.2-0.6,0
		c-2.9-2.2-5.6-4.5-8.4-6.9c-2.8-2.3-5.5-4.7-8-7.3C723,477.8,723.6,477.2,724,477.5L724,477.5z"/>
	<path class="st1" d="M724.7,478.2c4.9,0.9,9.6,2.6,14.3,4.2c4.7,1.7,9.3,3.4,13.9,5.4c0.2,0.1,0.3,0.4,0.2,0.6
		c-0.1,0.2-0.3,0.3-0.5,0.3c-4.8-1.2-9.6-2.7-14.3-4.2C737.4,484.1,721.2,479,724.7,478.2L724.7,478.2z"/>
	<path class="st1" d="M724.2,478.8c-2.4-2.9-3.6-6.3-4.9-9.6c-1.3-3.4-2.5-6.8-3.4-10.3c-0.1-0.2,0.1-0.5,0.3-0.6
		c0.2-0.1,0.4,0,0.5,0.2c1.9,3.1,3.4,6.4,4.9,9.6C722.1,468.9,726.9,480.2,724.2,478.8L724.2,478.8z"/>
</g>
</svg>
